<svg width="18" height="10" viewBox="0 0 18 10" fill="none" xmlns="http://www.w3.org/2000/svg">
<path d="M12.293 0.292856C12.6591 -0.0732595 13.2381 -0.0958534 13.6309 0.224497L13.707 0.292856L17.707 4.29286C18.0976 4.68338 18.0976 5.3164 17.707 5.70692L13.707 9.70692C13.3165 10.0974 12.6835 10.0974 12.293 9.70692C11.9024 9.31639 11.9024 8.68338 12.293 8.29286L14.5859 5.99989H1C0.447715 5.99989 0 5.55217 0 4.99989C0 4.4476 0.447715 3.99989 1 3.99989H14.5859L12.293 1.70692L12.2246 1.63075C11.9043 1.23797 11.9269 0.658972 12.293 0.292856Z" fill="#332200"/>
</svg>
